#include "pitches.h"
struct note {
  unsigned int frequency;
  unsigned long duration;
};

struct note melody[] = {
  { NOTE_A5, 200 },
  { NOTE_D6, 200 },
  { NOTE_C6, 200 },

  { NOTE_G5, 100 },
  { NOTE_A5, 100 }, 
  { NOTE_G5, 100 },
  { NOTE_A5, 100 },
  { NOTE_G5, 100 },
  { NOTE_F5, 200 },
   { NOTE_D5, 300 },
   { NOTE_C5, 200 },
   { NOTE_D5, 400 },

{ NOTE_G5, 100 },
  { NOTE_A5,100 }, 
  { NOTE_G5, 100 },
  { NOTE_A5, 100 },
  { NOTE_C6, 100 },
   { NOTE_A5, 200 },
   { NOTE_G5, 300 },
   { NOTE_F5, 200 },
   { NOTE_A5, 400 },

   { NOTE_G5, 100 },
  { NOTE_A5, 100 }, 
  { NOTE_G5, 100 },
  { NOTE_A5, 100 },
  { NOTE_G5, 100 },
   { NOTE_F5, 200 },
   { NOTE_G5, 300 },
   { NOTE_A5, 200 },

   { NOTE_A5, 200 },
    { NOTE_D6, 200 },
     { NOTE_A5, 200 },
    { NOTE_D6, 200 },

     { NOTE_F6, 200 },
     { NOTE_E6, 100 },
     { NOTE_D6, 300 },//わからん
   
   { NOTE_D6, 200 },
   { NOTE_C6, 200 },
   { NOTE_A5, 200 },
    { NOTE_G5, 200 },
    { NOTE_F5, 200 },
    { NOTE_G5, 200 },
    { NOTE_A5, 100 },
    { NOTE_A5, 400 },

    { NOTE_D6, 200 },
   { NOTE_C6, 200 },
   { NOTE_A5, 200 },
    { NOTE_G5, 200 },
    { NOTE_F5, 200 },
    { NOTE_G5, 200 },
    { NOTE_A5, 100 },
    { NOTE_A5, 400 },

       { NOTE_F5, 200 },
   { NOTE_G5, 200 },
   { NOTE_F5, 200 },
    { NOTE_G5, 200 },
    { NOTE_F5, 200 },
    { NOTE_A5, 200 },
    { NOTE_AS5, 100 },
    { NOTE_A5, 400 },

{ NOTE_C5, 200 },
     { NOTE_D5, 200 },
     { NOTE_C5, 100 },
{ NOTE_C5, 300 },
{ NOTE_CS5, 200 },
{ NOTE_D5, 200 },
{ NOTE_C5, 100 },
{ NOTE_F5, 200 },
{ NOTE_D5, 100 },




};